<?xml version="1.0" encoding="UTF-8" standalone="no"?>
<!DOCTYPE svg PUBLIC "-//W3C//DTD SVG 1.1//EN" "http://www.w3.org/Graphics/SVG/1.1/DTD/svg11.dtd">
<svg width="100%" height="100%" viewBox="0 0 401 401" version="1.1" xmlns="http://www.w3.org/2000/svg" xmlns:xlink="http://www.w3.org/1999/xlink" xml:space="preserve" xmlns:serif="http://www.serif.com/" style="fill-rule:evenodd;clip-rule:evenodd;stroke-linejoin:round;stroke-miterlimit:2;">
    <g transform="matrix(1,0,0,1,-1430.65,-15228.8)">
        <g transform="matrix(5.66657,0,0,3.22938,42318,2199.47)">
            <g id="ethereum" transform="matrix(0.0557452,0,0,0.0969662,-7196,4034.71)">
                <g>
                    <g transform="matrix(1,0,0,1,-108.241,0)">
                        <path d="M392.07,0L392.07,882.29L784.13,650.54L392.07,0Z" style="fill:none;fill-rule:nonzero;stroke:rgb(116,213,191);stroke-width:2.23px;"/>
                    </g>
                    <g transform="matrix(1,0,0,1,-108.241,0)">
                        <path d="M392.07,0L-0,650.54L392.07,882.29L392.07,0Z" style="fill:none;fill-rule:nonzero;stroke:rgb(116,213,191);stroke-width:2.23px;"/>
                    </g>
                    <g transform="matrix(1,0,0,1,-108.241,0)">
                        <path d="M392.07,956.52L392.07,1277.38L784.37,724.89L392.07,956.52Z" style="fill:none;fill-rule:nonzero;stroke:rgb(116,213,191);stroke-width:2.23px;"/>
                    </g>
                    <g transform="matrix(1,0,0,1,-108.241,0)">
                        <path d="M392.07,1277.38L392.07,956.52L-0,724.89L392.07,1277.38Z" style="fill:none;fill-rule:nonzero;stroke:rgb(116,213,191);stroke-width:2.23px;"/>
                    </g>
                    <g transform="matrix(1,0,0,1,-108.241,0)">
                        <path d="M392.07,882.29L784.13,650.54L392.07,472.33L392.07,882.29Z" style="fill:none;fill-rule:nonzero;stroke:rgb(116,213,191);stroke-width:2.23px;"/>
                    </g>
                    <g transform="matrix(1,0,0,1,-108.241,0)">
                        <path d="M0,650.54L392.07,882.29L392.07,472.33L0,650.54Z" style="fill:none;fill-rule:nonzero;stroke:rgb(116,213,191);stroke-width:2.23px;"/>
                    </g>
                    <g transform="matrix(3.16572,0,0,3.19345,-4879.34,-48633.4)">
                        <rect x="1431" y="15229.1" width="400" height="400" style="fill:none;stroke:black;stroke-width:0.7px;stroke-linecap:round;stroke-miterlimit:1.5;"/>
                    </g>
                </g>
            </g>
        </g>
    </g>
</svg>
