<?xml version="1.0" encoding="UTF-8" standalone="no"?>
<!DOCTYPE svg PUBLIC "-//W3C//DTD SVG 1.1//EN" "http://www.w3.org/Graphics/SVG/1.1/DTD/svg11.dtd">
<svg width="100%" height="100%" viewBox="0 0 54 54" version="1.1" xmlns="http://www.w3.org/2000/svg" xmlns:xlink="http://www.w3.org/1999/xlink" xml:space="preserve" xmlns:serif="http://www.serif.com/" style="fill-rule:evenodd;clip-rule:evenodd;stroke-linejoin:round;stroke-miterlimit:2;">
    <g transform="matrix(1,0,0,1,-24919.4,-14020.7)">
        <g transform="matrix(1,0,0,1,19344.9,18078.9)">
            <g transform="matrix(0.123282,0,0,0.13556,5570.56,-4067.5)">
                <path d="M264.698,185.509L148.92,68.322L31.863,185.509L68.877,185.509L132.3,122.2L132.3,368L164.3,368L164.3,121.7L229.027,185.509L264.698,185.509Z" style="fill:rgb(228,131,191);fill-rule:nonzero;"/>
                <g transform="matrix(1,0,0,-1,197.164,527.696)">
                    <path d="M264.698,185.509L148.92,68.322L31.863,185.509L68.877,185.509L132.3,122.2L132.3,368L164.3,368L164.3,121.7L228.976,185.509L264.698,185.509Z" style="fill:rgb(160,131,228);fill-rule:nonzero;"/>
                </g>
            </g>
        </g>
    </g>
</svg>
